<?xml version="1.0" encoding="UTF-8"?>
<svg version="1.1" xmlns="http://www.w3.org/2000/svg" width="512" height="512">
<path d="M0 0 C1.49940532 0.39483121 2.99903868 0.78879736 4.49888611 1.1819458 C8.43929243 2.21732317 12.37648479 3.26444017 16.31311035 4.31408691 C20.27260526 5.36760436 24.23506007 6.40985813 28.19726562 7.453125 C34.71417804 9.17084226 41.23024039 10.89172734 47.74156284 12.63053513 C51.06440328 13.51771121 54.3891099 14.39595464 57.71896362 15.25646973 C64.18556208 16.93659412 70.42304194 18.78942957 76.65234375 21.203125 C79.42742936 22.02683671 82.22739391 22.73453437 85.03515625 23.4375 C86.6316874 23.85087958 88.22803587 24.26496518 89.82421875 24.6796875 C92.29026433 25.31618069 94.75712293 25.94805569 97.22753906 26.56738281 C115.95666863 31.28161976 131.30621994 37.67067745 142.79296875 54.05078125 C147.30288925 61.69680192 151.76657245 71.3467789 151.78935814 80.27081203 C151.79443268 81.32485365 151.79950722 82.37889527 151.80473554 83.46487755 C151.80548218 85.2079276 151.80548218 85.2079276 151.8062439 86.9861908 C151.81062615 88.21760365 151.8150084 89.4490165 151.81952345 90.71774489 C151.83059461 94.14248779 151.83713796 97.56718498 151.84170461 100.99193919 C151.84766006 104.6833664 151.85927028 108.37477677 151.86999512 112.06619263 C151.89452396 120.98609535 151.9091488 129.90600365 151.92205518 138.82592973 C151.92576735 141.34603138 151.92974058 143.86613247 151.93380785 146.38623357 C151.95904917 162.03970208 151.98109981 177.69317147 151.993536 193.34665585 C151.99646565 196.97304729 151.99942731 200.5994387 152.00244141 204.22583008 C152.00318746 205.12714212 152.00393351 206.02845417 152.00470217 206.9570787 C152.01734679 221.54702439 152.05055711 236.13684796 152.09224324 250.7267366 C152.1347041 265.71085476 152.15823599 280.6949105 152.16345656 295.67908865 C152.16686642 304.09004092 152.17857102 312.50080251 152.2115593 320.91169548 C152.23961837 328.07755495 152.25053366 335.24318467 152.23936383 342.4090948 C152.23419166 346.06234165 152.23696874 349.71510782 152.26182938 353.36828423 C152.28861801 357.3381176 152.27621194 361.30730295 152.26034546 365.27720642 C152.27422755 366.4191633 152.28810963 367.56112018 152.30241239 368.73768181 C152.20913623 378.24455672 149.86235781 387.0330205 143.33984375 394.203125 C135.05357197 401.63719815 125.93323171 402.90766171 115.14652634 402.42237473 C110.99075793 402.05706423 107.03425055 401.0705892 102.99853516 400.04541016 C102.09293665 399.82242563 101.18733814 399.59944111 100.25429726 399.36969948 C97.38404169 398.65867857 94.51781337 397.93317809 91.65234375 397.203125 C90.74135674 396.97201775 89.83036972 396.74091049 88.89177704 396.50279999 C82.25007733 394.8131571 75.61860902 393.08519806 68.98828125 391.3515625 C66.89234917 390.80521404 64.79637038 390.25904474 62.7003479 389.71304321 C58.35212784 388.5798897 54.0042786 387.44532894 49.65673828 386.30957031 C44.1110938 384.86082903 38.56480313 383.41458084 33.01827049 381.969244 C27.67472102 380.5766924 22.33148756 379.18293011 16.98828125 377.7890625 C15.98641155 377.52780956 14.98454185 377.26655663 13.95231247 376.99738693 C12.0142492 376.49184404 10.07627734 375.98595056 8.13840675 375.47966957 C6.33188812 375.00781128 4.52513253 374.53685903 2.71811485 374.06691551 C-2.55235198 372.69168273 -7.79739017 371.25315094 -13.00790405 369.66299438 C-18.38891312 368.60537754 -23.26123302 369.21337033 -28.50830078 370.6015625 C-29.69447998 370.910867 -30.88065918 371.22017151 -32.1027832 371.53884888 C-33.39538372 371.88512993 -34.68794431 372.23156007 -35.98046875 372.578125 C-37.35144459 372.93889903 -38.72262527 373.29889543 -40.09399414 373.65817261 C-43.7885616 374.62833223 -47.48028925 375.60890918 -51.17154694 376.59157562 C-55.02803793 377.61648767 -58.88690509 378.63236976 -62.74560547 379.64892578 C-67.50888873 380.90440919 -72.27188157 382.16095904 -77.03372192 383.42190552 C-87.00061814 386.06083881 -96.97357029 388.67507165 -106.95358658 391.2639389 C-111.13548849 392.3491181 -115.31661153 393.43729543 -119.49781609 394.52515793 C-122.79227422 395.38207387 -126.08711519 396.23745281 -129.38287354 397.08935547 C-133.04172222 398.03636127 -136.69876443 398.9900653 -140.35546875 399.9453125 C-141.41403076 400.21753632 -142.47259277 400.48976013 -143.56323242 400.77023315 C-149.49201026 402.32662688 -155.21381211 404.17045712 -160.95394897 406.31997681 C-165.57799372 408.02599859 -170.33187291 409.21591502 -175.09765625 410.453125 C-176.58072266 410.8553125 -176.58072266 410.8553125 -178.09375 411.265625 C-179.05925781 411.51828125 -180.02476562 411.7709375 -181.01953125 412.03125 C-181.87643555 412.2571582 -182.73333984 412.48306641 -183.61621094 412.71582031 C-189.52675753 413.77029395 -194.5939005 413.10546764 -200.34765625 411.55859375 C-200.98703125 411.38814041 -201.62640625 411.21768707 -202.28515625 411.04206848 C-203.62742708 410.68219956 -204.96857072 410.3181018 -206.30859375 409.94995117 C-208.33972942 409.39279937 -210.37443442 408.85067143 -212.41015625 408.31054688 C-222.3907215 405.61963505 -222.3907215 405.61963505 -226.74511719 403.72436523 C-230.77410721 402.02304802 -234.75961106 400.89771041 -238.98828125 399.8203125 C-239.81618164 399.60469162 -240.64408203 399.38907074 -241.49707031 399.16691589 C-244.1959396 398.46541885 -246.8967527 397.77174422 -249.59765625 397.078125 C-251.47766326 396.59089237 -253.35754475 396.10317521 -255.23730469 395.61499023 C-264.29062891 393.26702158 -273.3505256 390.94458597 -282.41015625 388.62109375 C-283.58877228 388.31863739 -283.58877228 388.31863739 -284.79119873 388.0100708 C-288.46048671 387.06873212 -292.13032592 386.12972117 -295.80175781 385.19677734 C-320.50339447 378.90253423 -338.50413254 373.26636623 -353.34765625 351.203125 C-358.87224034 341.04587763 -360.64594175 332.43233136 -360.62181091 320.98373413 C-360.62704759 319.7536927 -360.63228427 318.52365127 -360.63767964 317.25633585 C-360.65006355 313.85390778 -360.6535238 310.45168665 -360.65308273 307.04925036 C-360.65473496 303.37490638 -360.66780911 299.70059967 -360.67927551 296.02627563 C-360.70209393 287.99714823 -360.71004282 279.96804732 -360.71510196 271.93889189 C-360.71836286 266.92133028 -360.72488775 261.90377631 -360.73210335 256.88621902 C-360.7516657 242.98215927 -360.76807187 229.07810661 -360.77097988 215.17403221 C-360.77116745 214.28482977 -360.77135502 213.39562732 -360.77154827 212.47947935 C-360.77191452 210.67700299 -360.77227821 208.87452662 -360.77263939 207.07205026 C-360.7729136 205.7300011 -360.7729136 205.7300011 -360.77319336 204.36083984 C-360.77337391 203.46504273 -360.77355446 202.56924561 -360.77374048 201.64630313 C-360.77728052 187.13811192 -360.80429388 172.63006928 -360.84169125 158.12192957 C-360.87981758 143.21112362 -360.89913768 128.30039131 -360.89943939 113.38953555 C-360.90002301 105.0238919 -360.90845328 96.65842549 -360.93743706 88.29282761 C-360.96200898 81.16807263 -360.96919486 74.04355952 -360.95418953 66.91877358 C-360.94704405 63.2876596 -360.94777465 59.65702264 -360.97060013 56.02596283 C-360.99517496 52.07857257 -360.98048799 48.13185432 -360.96238708 44.18441772 C-360.97558705 43.05199312 -360.98878702 41.91956851 -361.00238699 40.752828 C-360.90567421 31.47321826 -358.81782012 22.45407574 -352.84765625 15.140625 C-352.02265625 14.50125 -351.19765625 13.861875 -350.34765625 13.203125 C-349.56390625 12.501875 -348.78015625 11.800625 -347.97265625 11.078125 C-339.85725475 5.28140964 -331.22595398 4.4213114 -321.44140625 5.72265625 C-307.72143446 8.25693873 -294.2154331 12.36353045 -280.77734375 16.08203125 C-279.56288574 16.4179126 -278.34842773 16.75379395 -277.09716797 17.09985352 C-274.34980942 17.9082474 -271.65518957 18.7631008 -268.9465332 19.68457031 C-264.4557145 21.19894318 -259.92453155 22.44149153 -255.3359375 23.62109375 C-254.4969693 23.83967545 -253.6580011 24.05825714 -252.79360962 24.28346252 C-250.08326718 24.98900887 -247.37183267 25.6902244 -244.66015625 26.390625 C-240.8863281 27.36698772 -237.11288345 28.34481353 -233.33984375 29.32421875 C-231.93553352 29.68847458 -231.93553352 29.68847458 -230.50285339 30.06008911 C-224.72907814 31.56399044 -218.97425591 33.12390526 -213.23046875 34.73828125 C-211.86163408 35.11911875 -210.49273959 35.4997413 -209.1237793 35.88012695 C-206.63717097 36.57520064 -204.15396358 37.28260676 -201.67504883 38.00463867 C-189.51603645 41.37787517 -180.3163813 38.58491727 -168.41015625 35.328125 C-166.17741308 34.72485877 -163.94405536 34.12390675 -161.71063232 33.52316284 C-160.12616734 33.09690832 -158.54190196 32.66991123 -156.95782471 32.24221802 C-150.66616668 30.54661984 -144.36283324 28.89870932 -138.0546875 27.265625 C-137.1104744 27.02069305 -136.16626129 26.77576111 -135.19343567 26.52340698 C-127.68019422 24.57454111 -127.68019422 24.57454111 -123.96218872 23.61773682 C-121.34745983 22.94438081 -118.73417472 22.26565614 -116.12109375 21.5859375 C-114.96677605 21.29106445 -114.96677605 21.29106445 -113.78913879 20.99023438 C-109.48877433 19.86617426 -105.38060704 18.50719888 -101.23641968 16.90353394 C-98.40659881 15.85415327 -95.52414446 15.09058211 -92.60546875 14.328125 C-91.66093842 14.07934853 -91.66093842 14.07934853 -90.69732666 13.82554626 C-88.62353065 13.28045852 -86.54820506 12.74149696 -84.47265625 12.203125 C-82.99943958 11.81871712 -81.5262968 11.43402595 -80.05322266 11.04907227 C-77.69689165 10.43333132 -75.34047153 9.81795435 -72.98361206 9.20423889 C-67.62394941 7.80648716 -62.2720218 6.38190866 -56.92373657 4.94125366 C-53.12313417 3.91828318 -49.3204443 2.90320517 -45.51751709 1.88891602 C-43.66493455 1.3929089 -41.81323346 0.89359695 -39.96246338 0.39086914 C-37.35105268 -0.31769021 -34.73656383 -1.0136297 -32.12109375 -1.70703125 C-31.35154358 -1.91908707 -30.58199341 -2.13114288 -29.78912354 -2.34962463 C-19.11156251 -5.14407482 -10.41466372 -2.79539477 0 0 Z " fill="#CAD5DD" transform="translate(360.34765625,65.796875)"/>
<path d="M0 0 C18.337577 3.43829569 18.337577 3.43829569 27.1875 6.125 C28.95130756 6.65017146 30.71561494 7.17366779 32.48046875 7.6953125 C33.60811646 8.0358667 33.60811646 8.0358667 34.75854492 8.38330078 C37.15563473 9.04282032 39.55763248 9.53911506 42 10 C42 10.66 42 11.32 42 12 C43.74023438 12.19142578 43.74023438 12.19142578 45.515625 12.38671875 C49.6690011 12.90817384 53.69792243 13.77134118 57.75 14.8125 C58.44609375 14.98845703 59.1421875 15.16441406 59.859375 15.34570312 C64.96318287 16.66387409 69.92074724 18.28079682 74.90234375 20.00390625 C78.42150221 21.1355398 81.97405479 22.05883151 85.5625 22.9375 C86.22733398 23.10064697 86.89216797 23.26379395 87.57714844 23.43188477 C88.97659247 23.77414369 90.37617345 24.11584302 91.77587891 24.45703125 C127.68249483 33.22281762 127.68249483 33.22281762 138.5546875 49.9609375 C142.08102235 57.37577133 142.29240373 65.03409016 142.26742554 73.12011719 C142.27195665 74.20768185 142.27648776 75.29524651 142.28115618 76.41576767 C142.29376888 80.04284722 142.29218183 83.66977601 142.29052734 87.296875 C142.29651439 89.90425814 142.30332034 92.51163951 142.31088257 95.11901855 C142.32744659 101.45551879 142.33298995 107.79198181 142.33410732 114.12850189 C142.33505963 119.28029406 142.339179 124.43207401 142.34550858 129.5838623 C142.36310553 144.20488676 142.37234943 158.82588193 142.37084763 173.44691706 C142.37076772 174.23400474 142.3706878 175.02109242 142.37060547 175.83203125 C142.37052371 176.62008447 142.37044195 177.40813769 142.37035771 178.22007132 C142.36954441 190.99779247 142.38869705 203.77539586 142.4168822 216.55308294 C142.44562489 229.68755385 142.45942186 242.82196734 142.45769465 255.95647049 C142.45703141 263.32483145 142.4624953 270.6930688 142.48405075 278.06140137 C142.50418798 284.98898073 142.50357484 291.91629507 142.48901749 298.84388733 C142.48692539 301.3847339 142.49165403 303.92559671 142.5037384 306.46641541 C142.51917866 309.93787829 142.50988967 313.40843929 142.49447632 316.87988281 C142.50476344 317.88252041 142.51505057 318.885158 142.52564943 319.91817856 C142.4578514 326.83946016 141.28700868 333.20520381 136.62351358 338.5891304 C131.08950807 343.56865471 125.31350543 344.44561673 118.13671875 344.328125 C113.39381338 343.83198048 108.99525797 342.49676327 104.45703125 341.0703125 C100.66910482 339.89755336 96.85068206 338.93696121 93 338 C90.87344735 337.472363 88.74717064 336.94361328 86.62109375 336.4140625 C84.87940918 335.98057495 84.87940918 335.98057495 83.10253906 335.53833008 C73.16472709 333.06182098 63.23625886 330.57199091 53.3515625 327.890625 C50.29141024 327.07743769 47.22282734 326.30967256 44.1472168 325.55737305 C37.14355513 323.84345029 30.22496856 321.93585444 23.31860352 319.86450195 C17.20611328 318.03705642 11.05495821 316.39492026 4.87890625 314.796875 C2 314 2 314 0 313 C-0.33 255.58 -0.66 198.16 -1 139 C-3.64 142.3 -6.28 145.6 -9 149 C-13.09932849 154.12416062 -13.87211708 154.95180002 -19.75 155.9765625 C-23.49297233 156.0155518 -25.32808913 154.48106009 -28 152 C-29.03357147 150.35394174 -30.04060332 148.69036558 -31 147 C-31.99 146.67 -32.98 146.34 -34 146 C-36.52003857 142.55152617 -36.15901 139.13426005 -36 135 C-36.99 135 -37.98 135 -39 135 C-37.69365503 141.25483651 -35.55320791 146.34320372 -32.5 151.9375 C-32.09652344 152.70384766 -31.69304687 153.47019531 -31.27734375 154.25976562 C-29.35257041 158.31946416 -29.35257041 158.31946416 -26 161 C-21.21610858 161.18760359 -16.71977508 160.77057552 -12 160 C-11.40375839 164.08851392 -11.06833669 167.56302778 -13.3828125 171.1328125 C-15.20506604 173.14439108 -17.08086938 175.08086938 -19 177 C-23.80574508 182.22363596 -25.35309567 187.87969974 -27.10546875 194.6953125 C-28 198 -28 198 -29.10546875 200.578125 C-30.14808047 203.40091657 -30.13308552 205.62527054 -30.125 208.625 C-30.55615436 215.0217629 -32.9274724 218.44218997 -36.8828125 223.34765625 C-38.86919713 225.83613441 -40.47322128 228.30918201 -42.0625 231.0625 C-50.65431586 245.71774994 -50.65431586 245.71774994 -56 249 C-58.69809776 248.74303831 -60.58350693 248.20824654 -63 247 C-63.34479384 245.15815258 -63.60045452 243.29930596 -63.8125 241.4375 C-64.57131061 236.44346735 -65.70557469 233.22212836 -68.55859375 229.1171875 C-73.75104125 221.4903405 -77.40014391 214.33959629 -76 205 C-75.54107824 203.03046077 -75.00967547 201.09629503 -74.453125 199.15234375 C-73.55069587 194.86580538 -73.50254332 190.34543037 -74 186 C-75.91025497 183.70930729 -75.91025497 183.70930729 -79.125 183.4375 C-84.65721682 184.24056373 -87.07166379 187.22702172 -91 191 C-96.14466035 195.52567754 -101.63026202 199.09878029 -107.625 202.375 C-108.55711304 202.89404907 -108.55711304 202.89404907 -109.50805664 203.42358398 C-113.6582641 205.61823084 -117.31501921 206.70428958 -122 207 C-124.20287482 205.60484595 -124.80440741 204.64813337 -125.55102539 202.17407227 C-127.38201027 193.30788392 -127.85296468 181.11936505 -123.75 172.9375 C-117.84778979 164.16092737 -109.55156327 156.91017248 -101.10546875 150.6640625 C-98.02069947 148.22600737 -95.34187566 145.44058908 -92.62890625 142.6015625 C-89.05353926 139.08621366 -84.96018177 139.85264154 -80.25 139.875 C-79.45078125 139.87113281 -78.6515625 139.86726562 -77.828125 139.86328125 C-73.43961182 139.8704992 -69.32026834 140.12200998 -65 141 C-65.03480469 140.34773437 -65.06960938 139.69546875 -65.10546875 139.0234375 C-65.28022979 133.3811524 -64.82396646 129.99624836 -62 125 C-59.95254684 118.40265093 -59.43549369 111.87621616 -59 105 C-67.0446573 105.80776272 -71.47158113 108.17307039 -77 114 C-77.81791016 114.78890625 -77.81791016 114.78890625 -78.65234375 115.59375 C-82.01775603 119.08761313 -83.67309395 122.45969915 -85.375 127 C-87.60082018 132.69695455 -90.42958352 137.13924361 -96 140 C-100.56561955 140.47467454 -104.0854516 139.52517277 -108.375 138 C-109.96441406 137.443125 -109.96441406 137.443125 -111.5859375 136.875 C-112.38257813 136.58625 -113.17921875 136.2975 -114 136 C-113.53472361 131.47341278 -112.14106845 129.75768398 -108.6875 126.875 C-107.90761719 126.21242188 -107.12773437 125.54984375 -106.32421875 124.8671875 C-105.55722656 124.25101562 -104.79023438 123.63484375 -104 123 C-103.28457031 122.42507812 -102.56914062 121.85015625 -101.83203125 121.2578125 C-100 120 -100 120 -98 120 C-98.33 118.02 -98.66 116.04 -99 114 C-99.99 114 -100.98 114 -102 114 C-102.36133603 107.61639676 -102.36133603 107.61639676 -100.9375 105.1875 C-98.763872 103.85527639 -96.64331211 103.27301755 -94.18579102 102.64672852 C-91.5613967 101.87022672 -89.1095907 100.84630777 -86.58984375 99.77734375 C-82.16291473 97.90983293 -77.72837917 96.0650079 -73.28125 94.24609375 C-71.02067495 93.31027833 -68.76025897 92.37407857 -66.5 91.4375 C-65.34757812 90.96892578 -64.19515625 90.50035156 -63.0078125 90.01757812 C-61.90179688 89.55673828 -60.79578125 89.09589844 -59.65625 88.62109375 C-58.16834961 88.00899048 -58.16834961 88.00899048 -56.65039062 87.38452148 C-53.86604265 85.93002283 -52.16442977 84.24347799 -50 82 C-49.34 82 -48.68 82 -48 82 C-49.26974972 77.58477891 -49.26974972 77.58477891 -52 74 C-55.41059102 74.11425766 -56.78279327 74.8028712 -59.32421875 77.109375 C-60.49404297 78.41648438 -60.49404297 78.41648438 -61.6875 79.75 C-66.70345498 84.97557698 -72.22350759 89.68566717 -79.73046875 90.1796875 C-82 90 -82 90 -83 89 C-82.9140625 87.00390625 -82.9140625 87.00390625 -82.625 84.5625 C-82.48964844 83.35787109 -82.48964844 83.35787109 -82.3515625 82.12890625 C-82 80 -82 80 -81 78 C-80.34 78 -79.68 78 -79 78 C-78.90460938 77.42507812 -78.80921875 76.85015625 -78.7109375 76.2578125 C-77.84319105 73.50200233 -76.55337683 72.01492872 -74.625 69.875 C-74.01914062 69.19179687 -73.41328125 68.50859375 -72.7890625 67.8046875 C-69.7301056 64.71901482 -67.22547229 63.57938284 -63 63 C-61.10742677 62.99831096 -59.21430574 63.05144557 -57.32421875 63.1484375 C-56.24849609 63.18324219 -55.17277344 63.21804687 -54.06445312 63.25390625 C-51.82388868 63.33425038 -49.5840391 63.43820232 -47.34570312 63.56640625 C-41.53087161 63.71221098 -37.87947159 63.56294671 -33.3828125 59.6484375 C-32.2286751 58.45744266 -31.09812899 57.24282523 -30 56 C-29.071875 55.0925 -28.14375 54.185 -27.1875 53.25 C-25.09750419 51.17148494 -25.09750419 51.17148494 -23.76171875 49.45703125 C-21.24155156 47.37272446 -18.81078112 47.07538524 -15.625 46.4375 C-12.38444911 45.77821551 -9.39874219 45.1631218 -6.3359375 43.91015625 C-4 43 -4 43 0 43 C0 28.81 0 14.62 0 0 Z " fill="#55ABED" transform="translate(341,91)"/>
<path d="M0 0 C1.75570312 0.01353516 1.75570312 0.01353516 3.546875 0.02734375 C4.43890625 0.03894531 5.3309375 0.05054687 6.25 0.0625 C6.25 0.7225 6.25 1.3825 6.25 2.0625 C7.301875 2.165625 8.35375 2.26875 9.4375 2.375 C23.50691761 4.13682331 23.50691761 4.13682331 29.140625 7.03515625 C31.65652925 8.2604948 34.21593498 8.86549706 36.93017578 9.50878906 C39.45278478 10.11090201 41.95782437 10.76570307 44.46484375 11.4296875 C53.32933597 13.76590365 62.18558722 16.09124385 71.125 18.125 C77.356261 19.54720063 83.45107421 21.26798888 89.56445312 23.12817383 C98.02920269 25.66349529 106.63963515 27.60500898 115.25146484 29.56933594 C116.93975271 29.98594252 118.60030631 30.5126021 120.25 31.0625 C120.25 52.5125 120.25 73.9625 120.25 96.0625 C121.57 96.3925 122.89 96.7225 124.25 97.0625 C126.93992193 99.94924549 128.89564249 102.33767781 130.625 105.875 C131.429375 106.9578125 131.429375 106.9578125 132.25 108.0625 C133.301875 108.145 134.35375 108.2275 135.4375 108.3125 C141.13803115 109.43391596 144.06450737 113.3463161 147.25 118.0625 C147.25 119.0525 147.25 120.0425 147.25 121.0625 C145.26432292 121.48567708 143.27864583 121.90885417 141.29296875 122.33203125 C138.77179878 123.23348208 137.77047198 123.83741906 136.25 126.0625 C135.66781668 129.4848884 135.66781668 129.4848884 135.5625 133.25 C135.46388672 135.15845703 135.46388672 135.15845703 135.36328125 137.10546875 C135.30720703 138.56919922 135.30720703 138.56919922 135.25 140.0625 C133.69033782 140.571283 132.12710759 141.06913469 130.5625 141.5625 C129.25732422 141.98015625 129.25732422 141.98015625 127.92578125 142.40625 C125.20135998 143.07442923 123.04045418 143.32164666 120.25 143.0625 C119.26 142.4025 118.27 141.7425 117.25 141.0625 C115.21943035 140.96154719 115.21943035 140.96154719 113.25 142.0625 C111.21289692 144.50872517 111.21289692 144.50872517 109.375 147.5625 C105.42869731 153.83667787 105.42869731 153.83667787 103.3984375 156.40234375 C98.46789916 162.67651221 98.60026476 168.27770926 99.25 176.0625 C97.93 175.7325 96.61 175.4025 95.25 175.0625 C95.04503906 174.20785156 94.84007812 173.35320312 94.62890625 172.47265625 C94.35949219 171.36792969 94.09007812 170.26320313 93.8125 169.125 C93.54566406 168.02285156 93.27882813 166.92070312 93.00390625 165.78515625 C92.52004275 163.16828746 92.52004275 163.16828746 91.25 162.0625 C89.08519203 161.9635706 86.91706215 161.932789 84.75 161.9375 C83.5640625 161.93492187 82.378125 161.93234375 81.15625 161.9296875 C78.35740578 161.73039781 78.35740578 161.73039781 77.25 163.0625 C77.12256575 165.49264159 77.06478879 167.88180235 77.0625 170.3125 C77.05025391 170.98152344 77.03800781 171.65054688 77.02539062 172.33984375 C77.01352699 176.3655706 77.38560923 179.47763634 79.25 183.0625 C81.64353344 185.45603344 82.78011003 185.48328194 86.0625 186 C90.03110402 186.71790956 92.94474611 187.63864715 96.25 190.0625 C94.60491434 191.87209422 93.38345311 193.00362363 91.125 194 C89.04278299 194.90895565 89.04278299 194.90895565 88.5 197.1875 C88.4175 197.80625 88.335 198.425 88.25 199.0625 C88.91 199.0625 89.57 199.0625 90.25 199.0625 C91.4154042 200.52757957 92.58036982 201.99301217 93.7421875 203.4609375 C96.20495009 206.07682523 99.06571973 207.43914143 102.25 209.0625 C102.29125 208.464375 102.3325 207.86625 102.375 207.25 C103.25 205.0625 103.25 205.0625 105.78125 203.5 C109.78519946 201.84070563 113.34532887 201.29677591 117.625 200.875 C118.36105469 200.79314453 119.09710938 200.71128906 119.85546875 200.62695312 C121.65254625 200.42857444 123.45114893 200.24409423 125.25 200.0625 C125.91 201.0525 126.57 202.0425 127.25 203.0625 C131.03178361 203.38355962 134.71904961 203.45036624 138.50976562 203.4140625 C142.72258333 203.49686973 144.67403558 203.6238568 148.1171875 206.24609375 C150.20494525 209.00300463 151.94848893 211.69297129 153.5625 214.75 C154.07425781 215.70261719 154.58601562 216.65523437 155.11328125 217.63671875 C156.25 220.0625 156.25 220.0625 156.25 222.0625 C159.88 222.0625 163.51 222.0625 167.25 222.0625 C166.18611959 227.38190206 164.56988145 229.24788541 160.9375 232.875 C154.36683045 239.76436859 151.48960948 245.22902252 149.78515625 254.625 C147.8926892 263.24470395 142.13139001 268.80166548 136.25 275.0625 C135.03516182 276.45267565 133.82626166 277.84807612 132.625 279.25 C129.77441102 282.53350553 126.76247794 285.59979705 123.6328125 288.6171875 C121.04549719 291.32144362 121.10597804 293.43751302 121.04467773 297.06298828 C121.02473251 298.10391632 121.00478729 299.14484436 120.98423767 300.21731567 C120.96752518 301.34442963 120.95081268 302.47154358 120.93359375 303.6328125 C120.9024221 305.35985916 120.9024221 305.35985916 120.87062073 307.12179565 C120.80508335 310.8103014 120.74622072 314.49888003 120.6875 318.1875 C120.64431877 320.68360138 120.60070462 323.1796953 120.55664062 325.67578125 C120.44939769 331.80460981 120.34763911 337.93351133 120.25 344.0625 C115.15512372 344.15438099 111.61473679 343.7175758 106.875 341.8125 C101.59830107 339.82466421 96.43923104 338.28321236 90.9375 337.0625 C85.17921433 335.7796299 79.5229494 334.33084939 73.875 332.625 C59.97303171 328.43133706 45.88655068 324.88629711 31.765625 321.51171875 C29.34369544 320.92470423 26.92182181 320.3374589 24.5 319.75 C23.30117187 319.46705078 22.10234375 319.18410156 20.8671875 318.89257812 C7.45794473 315.61298567 -5.88918567 311.24778805 -14.75 300.0625 C-18.65314323 293.38514958 -21.86699074 287.20733118 -21.88422108 279.39158249 C-21.88867892 278.45151848 -21.89313676 277.51145446 -21.89772969 276.54290366 C-21.89754533 275.51334689 -21.89736097 274.48379013 -21.89717102 273.42303467 C-21.90084771 272.32678591 -21.9045244 271.23053715 -21.9083125 270.10106874 C-21.91935676 266.41470518 -21.92319443 262.72836981 -21.92700195 259.04199219 C-21.93326597 256.40416801 -21.93989988 253.76634685 -21.94691467 251.12852478 C-21.96666337 243.20424653 -21.9767426 235.27996703 -21.98564246 227.35567033 C-21.99002738 223.62295917 -21.99539361 219.89024942 -22.00063133 216.15753937 C-22.0176409 203.74794179 -22.03213534 191.33834509 -22.03938007 178.92873764 C-22.04128992 175.70949045 -22.04321027 172.49024326 -22.04516602 169.27099609 C-22.04564976 168.47088121 -22.0461335 167.67076633 -22.0466319 166.84640554 C-22.05493326 153.88340137 -22.08027316 140.92048946 -22.11274669 127.95752558 C-22.14582182 114.64581238 -22.16382918 101.33414606 -22.16702431 88.02239156 C-22.16918884 80.54946371 -22.1779291 73.07667044 -22.20348549 65.60378265 C-22.2251986 59.24007175 -22.23323991 52.87652814 -22.22351871 46.51278439 C-22.21897586 43.26713864 -22.22304385 40.02190984 -22.24028015 36.77629662 C-22.25794 33.2538727 -22.25092092 29.73232406 -22.23774719 26.2098999 C-22.24871644 25.18926602 -22.25968568 24.16863214 -22.27098733 23.11706996 C-22.2058711 15.90422423 -20.74240325 10.52082568 -15.96875 5.00390625 C-15.4015625 4.54886719 -14.834375 4.09382813 -14.25 3.625 C-13.6828125 3.15191406 -13.115625 2.67882812 -12.53125 2.19140625 C-8.56055644 -0.32510787 -4.60279171 -0.04602792 0 0 Z " fill="#55ABED" transform="translate(50.75,104.9375)"/>
<path d="M0 0 C0 14.19 0 28.38 0 43 C-12.13603554 47.41310383 -12.13603554 47.41310383 -16.8125 47.9375 C-24.78156081 49.24111592 -27.96458554 53.93168001 -33 60 C-35.32877648 62.69673284 -37.06148746 63.89796318 -40.6340332 64.28637695 C-43.88922745 64.32227888 -47.12197551 64.24867489 -50.375 64.125 C-62.14453682 63.25916083 -62.14453682 63.25916083 -72.3984375 68.05859375 C-73.05070313 68.84363281 -73.70296875 69.62867188 -74.375 70.4375 C-75.04273438 71.21996094 -75.71046875 72.00242187 -76.3984375 72.80859375 C-78.16793045 74.99635475 -78.16793045 74.99635475 -79 78 C-79.66 78 -80.32 78 -81 78 C-81.33 81.63 -81.66 85.26 -82 89 C-72.69914216 88.66178699 -67.05411365 84.27600976 -60.75 77.6875 C-60.14671875 77.01074219 -59.5434375 76.33398438 -58.921875 75.63671875 C-56.59698575 73.65678258 -55.02765201 73.2110033 -52 73 C-49.6875 74.625 -49.6875 74.625 -48 77 C-47.75 79.75 -47.75 79.75 -48 82 C-48.66 82 -49.32 82 -50 82 C-50.33 82.99 -50.66 83.98 -51 85 C-59.12959833 90.16056667 -68.60620323 93.3376273 -77.5625 96.75 C-80.04473474 97.69866926 -82.52466889 98.65285032 -85.00390625 99.609375 C-86.08486572 100.02155273 -87.1658252 100.43373047 -88.27954102 100.85839844 C-91.14498414 101.95977266 -91.14498414 101.95977266 -94 104 C-95.9959722 104.67863055 -97.99568551 105.34641919 -100 106 C-101.96822886 107.96822886 -101.66248381 111.34808709 -102 114 C-101.01 114 -100.02 114 -99 114 C-98.67 115.98 -98.34 117.96 -98 120 C-98.83144531 120.61488281 -99.66289062 121.22976562 -100.51953125 121.86328125 C-101.61728343 122.67955851 -102.71493437 123.49597193 -103.8125 124.3125 C-104.35970703 124.71662109 -104.90691406 125.12074219 -105.47070312 125.53710938 C-111.38936985 129.65829526 -111.38936985 129.65829526 -114 136 C-113.30132812 136.13277344 -112.60265625 136.26554688 -111.8828125 136.40234375 C-110.97273438 136.57894531 -110.06265625 136.75554687 -109.125 136.9375 C-108.22007812 137.11152344 -107.31515625 137.28554687 -106.3828125 137.46484375 C-104 138 -104 138 -102 139 C-99.0430772 139.48135953 -96.92500984 139.47880465 -94.2265625 138.08203125 C-90.13905622 135.03871326 -88.4038952 131.99372052 -86.625 127.25 C-83.26169547 118.31448796 -75.70670017 109.35335008 -67 105 C-64.3276379 104.86584528 -61.67749512 104.95681459 -59 105 C-58.6119792 113.36400395 -58.81635721 121.32860938 -63.01416016 128.80664062 C-64.15861855 131.35290467 -64.40583682 133.47393307 -64.625 136.25 C-64.69976562 137.14203125 -64.77453125 138.0340625 -64.8515625 138.953125 C-64.92503906 139.96632812 -64.92503906 139.96632812 -65 141 C-65.68513672 140.96334229 -66.37027344 140.92668457 -67.07617188 140.88891602 C-70.21698026 140.74232022 -73.35706812 140.65203701 -76.5 140.5625 C-77.57765625 140.50384766 -78.6553125 140.44519531 -79.765625 140.38476562 C-85.46235461 140.26318908 -89.10605208 140.43622915 -93.5 144.27734375 C-94.68762702 145.49818354 -95.85705841 146.73722834 -97 148 C-97.8146875 148.721875 -98.629375 149.44375 -99.46875 150.1875 C-100.90408378 151.46825937 -102.33893287 152.74956202 -103.7734375 154.03125 C-105.20348592 155.29571386 -106.64535998 156.54699656 -108.1015625 157.78125 C-115.47247838 164.04225963 -123.95374339 171.42121523 -125.34960938 181.5324707 C-125.46356008 184.2620399 -125.44833489 186.95674012 -125.375 189.6875 C-125.37371094 190.61111328 -125.37242187 191.53472656 -125.37109375 192.48632812 C-125.41784834 199.05908222 -125.41784834 199.05908222 -123 205 C-120.82657716 206.24751374 -120.82657716 206.24751374 -118 206 C-115.25857348 204.92384427 -112.82865026 203.81649624 -110.25 202.4375 C-109.5384375 202.06689453 -108.826875 201.69628906 -108.09375 201.31445312 C-99.88289073 196.97678203 -93.03199489 192.42787337 -86.62890625 185.63671875 C-84.17131565 183.16734114 -83.13275432 183.00965486 -79.5625 182.75 C-76 183 -76 183 -74.296875 184.19140625 C-71.67572983 187.84679846 -72.63880336 192.70116781 -73 197 C-73.29017415 198.36406651 -73.61940904 199.72084841 -74 201.0625 C-76.61969512 210.66804877 -74.47429539 217.1041087 -69.921875 225.703125 C-68.62788656 227.92289378 -67.26049387 230.10127891 -65.828125 232.234375 C-63.41792182 235.88057981 -62.87556806 238.41419642 -62.9375 242.6875 C-62.94652344 243.49574219 -62.95554687 244.30398438 -62.96484375 245.13671875 C-62.98224609 246.05904297 -62.98224609 246.05904297 -63 247 C-58.09811883 248.24069173 -58.09811883 248.24069173 -53.5625 246.5234375 C-50.30452309 243.31512487 -48.36852494 239.86200245 -46.1875 235.875 C-42.70466068 229.71123477 -39.0965926 224.18171728 -34.49609375 218.78515625 C-31.57772178 215.30292129 -31.58536594 211.73447381 -31.125 207.375 C-30.44213195 201.44434672 -29.412488 196.50047263 -27 191 C-26.82082031 190.31164062 -26.64164063 189.62328125 -26.45703125 188.9140625 C-24.5645838 181.67449842 -20.20751716 176.28656865 -15 171 C-14.34 171 -13.68 171 -13 171 C-12.67 167.37 -12.34 163.74 -12 160 C-13.010625 160.33 -14.02125 160.66 -15.0625 161 C-18.83979737 162.04543382 -22.06391589 162.51023313 -26 162 C-30.44323805 158.30322594 -32.8212953 154.15363371 -35.3125 149.0625 C-35.67150391 148.37220703 -36.03050781 147.68191406 -36.40039062 146.97070312 C-38.47058854 142.81059112 -39.43896644 139.75422973 -39 135 C-38.01 135 -37.02 135 -36 135 C-35.01 140.445 -35.01 140.445 -34 146 C-32.68 146.33 -31.36 146.66 -30 147 C-28.9935725 148.66279327 -27.99414593 150.32983484 -27 152 C-24.68110023 154.11429097 -23.15863795 155.03765083 -19.97900391 154.93432617 C-13.16680362 153.75071929 -10.39692044 150.90413843 -6.5 145.375 C-5.47062059 143.98559134 -4.43947283 142.59749041 -3.40625 141.2109375 C-2.74592773 140.28740479 -2.74592773 140.28740479 -2.07226562 139.34521484 C-1.71841797 138.90129395 -1.36457031 138.45737305 -1 138 C-0.67 138 -0.34 138 0 138 C0 195.75 0 253.5 0 313 C-7.425 314.98 -7.425 314.98 -15 317 C-19.648896 318.48129473 -19.648896 318.48129473 -24.29693604 319.965271 C-35.36250636 323.43633537 -46.64556545 326.19038482 -57.86754608 329.10337067 C-61.26611868 329.98647694 -64.66352722 330.87403878 -68.06103516 331.76123047 C-73.50111247 333.18134486 -78.94174898 334.59929417 -84.3828125 336.015625 C-93.85062691 338.48046819 -103.31409488 340.96182164 -112.77734375 343.44412231 C-115.33827733 344.11537454 -117.89953634 344.78536839 -120.4609375 345.45483398 C-127.48789662 347.29156503 -134.5133281 349.1329025 -141.53125 351.00390625 C-142.62646973 351.29442871 -143.72168945 351.58495117 -144.85009766 351.88427734 C-146.77274456 352.3948107 -148.69441701 352.90903905 -150.61474609 353.42822266 C-151.41992676 353.64140137 -152.22510742 353.85458008 -153.0546875 354.07421875 C-153.72999512 354.25557373 -154.40530273 354.43692871 -155.10107422 354.6237793 C-157 355 -157 355 -161 355 C-161 355.66 -161 356.32 -161 357 C-163.97 357.33 -166.94 357.66 -170 358 C-170.17805392 350.7412601 -170.3003105 343.48308679 -170.38452148 336.22265625 C-170.41963971 333.75499426 -170.46734647 331.28747705 -170.52807617 328.8203125 C-170.61336874 325.26526111 -170.65277691 321.71214082 -170.68359375 318.15625 C-170.71972275 317.06010376 -170.75585175 315.96395752 -170.79307556 314.83459473 C-170.79592874 309.21976515 -170.41471932 305.7849241 -166.67211914 301.45117188 C-165.47446873 300.27333262 -164.25072984 299.12131471 -163 298 C-161.85115718 296.87807344 -160.70487699 295.75350956 -159.5625 294.625 C-158.99015625 294.06296875 -158.4178125 293.5009375 -157.828125 292.921875 C-154.27184212 289.18321864 -151.16998382 285.06542255 -148 281 C-147.29488281 280.15050781 -146.58976562 279.30101562 -145.86328125 278.42578125 C-142.27125909 273.74937505 -141.05536693 268.61636092 -140.0625 262.875 C-138.70449964 255.70169162 -134.76125428 251.66327669 -129.6796875 246.734375 C-126.5854344 243.53937877 -124.41569836 240.24709508 -123 236 C-126.63 236 -130.26 236 -134 236 C-134.62648438 234.85660156 -135.25296875 233.71320313 -135.8984375 232.53515625 C-136.72366998 231.0441112 -137.54920658 229.55323445 -138.375 228.0625 C-138.7875 227.30775391 -139.2 226.55300781 -139.625 225.77539062 C-140.02460938 225.05673828 -140.42421875 224.33808594 -140.8359375 223.59765625 C-141.38580322 222.60004272 -141.38580322 222.60004272 -141.94677734 221.58227539 C-142.9231556 219.83143994 -142.9231556 219.83143994 -145 219 C-146.35107766 218.88467281 -147.70690047 218.82163753 -149.0625 218.7890625 C-149.85914063 218.76070312 -150.65578125 218.73234375 -151.4765625 218.703125 C-153.15863063 218.65104859 -154.84095848 218.60677489 -156.5234375 218.5703125 C-157.32007813 218.539375 -158.11671875 218.5084375 -158.9375 218.4765625 C-159.66839844 218.45674316 -160.39929688 218.43692383 -161.15234375 218.41650391 C-163 218 -163 218 -165 215 C-167.5437873 215.25679563 -170.08405374 215.52992542 -172.625 215.8125 C-173.33785156 215.88275391 -174.05070312 215.95300781 -174.78515625 216.02539062 C-179.38691715 216.5531155 -183.01221567 217.46622319 -187 220 C-187.33 220.99 -187.66 221.98 -188 223 C-192.84146109 221.53289058 -196.55948972 218.6487256 -200 215 C-200 214.34 -200 213.68 -200 213 C-200.66 213 -201.32 213 -202 213 C-201.875 210.6875 -201.875 210.6875 -201 208 C-197.9375 206.1875 -197.9375 206.1875 -195 205 C-197.98277405 202.45221383 -200.13378219 201.5870326 -204 201.0625 C-207.28710669 200.47672694 -208.8223054 200.13002044 -211.5625 198.125 C-214.43856661 193.87342327 -214.18271721 189.36822871 -214.1875 184.375 C-214.19974609 183.694375 -214.21199219 183.01375 -214.22460938 182.3125 C-214.22986355 180.54009244 -214.12215906 178.7682006 -214 177 C-212 175 -212 175 -209.03125 174.734375 C-207.8659375 174.73953125 -206.700625 174.7446875 -205.5 174.75 C-204.3346875 174.74484375 -203.169375 174.7396875 -201.96875 174.734375 C-199 175 -199 175 -197 177 C-196.17074687 180.09558889 -195.5317098 183.21046891 -194.87890625 186.34765625 C-194.58886719 187.22292969 -194.29882812 188.09820312 -194 189 C-193.01 189.33 -192.02 189.66 -191 190 C-191.18820313 189.23558594 -191.37640625 188.47117187 -191.5703125 187.68359375 C-192.89573703 179.92706007 -191.84392409 175.46768386 -187.4375 169.1875 C-185.67524161 166.75026808 -183.85073428 164.37034996 -182 162 C-180.7908332 160.3547789 -179.58230421 158.7090884 -178.375 157.0625 C-177.59125 156.051875 -176.8075 155.04125 -176 154 C-171.125 154.875 -171.125 154.875 -170 156 C-168.06052944 155.93402402 -168.06052944 155.93402402 -165.8125 155.625 C-164.67748047 155.48964844 -164.67748047 155.48964844 -163.51953125 155.3515625 C-160.66988084 154.95393686 -157.83609276 154.48431107 -155 154 C-155.06960937 153.04738281 -155.13921875 152.09476563 -155.2109375 151.11328125 C-155.64044475 141.16302988 -155.64044475 141.16302988 -153.875 137.95703125 C-151.2543976 135.62988172 -149.06925632 135.00641262 -145.625 134.6875 C-144.75875 134.790625 -143.8925 134.89375 -143 135 C-145.28031612 130.9194343 -147.68628493 127.31371507 -151 124 C-154.56769552 123.26393501 -154.56769552 123.26393501 -158 123 C-160.98640116 121.00906589 -162.19530962 117.89612077 -163.7421875 114.71875 C-164.95695736 112.77386511 -164.95695736 112.77386511 -167.5431366 111.78678894 C-170 110 -170 110 -170.60127258 107.17158508 C-170.59016953 106.0235289 -170.57906647 104.87547272 -170.56762695 103.69262695 C-170.5672493 102.39150467 -170.56687164 101.09038239 -170.56648254 99.74983215 C-170.54094909 98.32930549 -170.5148691 96.90878857 -170.48828125 95.48828125 C-170.47895464 94.03526525 -170.47183781 92.58223351 -170.46684265 91.12919617 C-170.44776018 87.30651363 -170.3986506 83.48478246 -170.34332275 79.66247559 C-170.29215602 75.76144278 -170.26933424 71.86025609 -170.24414062 67.95898438 C-170.19053136 60.30555606 -170.10520564 52.65291137 -170 45 C-169.23020309 44.80136856 -168.46040619 44.60273712 -167.6672821 44.39808655 C-164.13602397 43.48635832 -160.6051196 42.57326714 -157.07421875 41.66015625 C-155.86342651 41.34776001 -154.65263428 41.03536377 -153.40515137 40.71350098 C-146.85526476 39.01858878 -140.32021427 37.28784155 -133.8125 35.4375 C-125.88520554 33.2009446 -117.90477591 31.21079756 -109.90844727 29.23681641 C-102.91976212 27.50321511 -95.9747422 25.65225064 -89.04760742 23.68798828 C-83.95336917 22.24661125 -78.83834724 20.95126737 -73.67578125 19.7734375 C-70.88026462 19.03329602 -70.88026462 19.03329602 -67.90576172 17.609375 C-63.65887634 15.77028231 -59.30811714 14.62007264 -54.83203125 13.4765625 C-53.51968758 13.13448257 -53.51968758 13.13448257 -52.18083191 12.78549194 C-49.3926941 12.06018088 -46.60263931 11.34256815 -43.8125 10.625 C-41.99010867 10.15152525 -40.16784196 9.67757055 -38.34570312 9.203125 C-32.90061328 7.78838719 -27.45142048 6.39012974 -22 5 C-21.05122986 4.75793823 -20.10245972 4.51587646 -19.12493896 4.26647949 C-16.33801326 3.5572006 -13.55010091 2.8519666 -10.76171875 2.1484375 C-9.90890823 1.93168365 -9.05609772 1.71492981 -8.17744446 1.49160767 C-2.23222203 0 -2.23222203 0 0 0 Z " fill="#88C8F8" transform="translate(341,91)"/>
<path d="M0 0 C2.32367955 0.75480067 4.58060898 1.19761148 6.984375 1.62109375 C11.68526663 2.63194982 14.04207066 4.17374752 17.296875 7.74609375 C18.609375 11.49609375 18.609375 11.49609375 19.296875 14.74609375 C20.45989654 16.13138024 20.45989654 16.13138024 23.671875 15.93359375 C27.39362891 16.05063228 27.39362891 16.05063228 30.296875 13.74609375 C33.51081677 14.15368304 36.32680926 15.54925197 39.234375 16.93359375 C40.06839844 17.31902344 40.90242187 17.70445312 41.76171875 18.1015625 C44.296875 19.74609375 44.296875 19.74609375 46.63671875 22.87890625 C49.07284937 26.07011299 49.07284937 26.07011299 52.8984375 26.4453125 C54.23943057 26.46592782 55.58100361 26.461004 56.921875 26.43359375 C58.34917103 26.46556518 59.77630245 26.50596831 61.203125 26.5546875 C61.89921875 26.57772949 62.5953125 26.60077148 63.3125 26.62451172 C70.38940589 27.05811151 75.3635863 28.88436596 80.65869141 33.50683594 C83.46626584 35.63071788 86.61352848 36.62968709 89.921875 37.74609375 C91.33139517 38.2468271 92.74024381 38.74945451 94.1484375 39.25390625 C94.84356445 39.50043945 95.53869141 39.74697266 96.25488281 40.00097656 C101.00684483 41.73495409 105.64773786 43.75612217 110.296875 45.74609375 C110.296875 47.06609375 110.296875 48.38609375 110.296875 49.74609375 C110.956875 49.74609375 111.616875 49.74609375 112.296875 49.74609375 C111.91760624 52.36135 111.5272144 53.52576911 109.58984375 55.37890625 C108.89503906 55.87132812 108.20023438 56.36375 107.484375 56.87109375 C106.79730469 57.36867187 106.11023438 57.86625 105.40234375 58.37890625 C100.18356988 61.76772045 100.18356988 61.76772045 96.734375 61.68359375 C93.49534991 60.43781487 93.01710026 58.68481191 91.296875 55.74609375 C87.89672828 53.8670653 85.14704577 53.52608399 81.296875 53.74609375 C78.81339673 60.10563772 78.81339673 60.10563772 77.296875 66.74609375 C77.93496094 66.73449219 78.57304687 66.72289062 79.23046875 66.7109375 C80.05675781 66.70191406 80.88304687 66.69289063 81.734375 66.68359375 C82.55808594 66.67199219 83.38179687 66.66039062 84.23046875 66.6484375 C86.296875 66.74609375 86.296875 66.74609375 87.296875 67.74609375 C87.39596283 69.53550347 87.42657879 71.32894883 87.421875 73.12109375 C87.42445313 74.09820312 87.42703125 75.0753125 87.4296875 76.08203125 C87.296875 78.74609375 87.296875 78.74609375 86.296875 81.74609375 C85.70519531 81.68808594 85.11351562 81.63007813 84.50390625 81.5703125 C78.99240797 81.24008801 78.99240797 81.24008801 74.359375 84.12109375 C73.67875 84.98734375 72.998125 85.85359375 72.296875 86.74609375 C71.636875 87.40609375 70.976875 88.06609375 70.296875 88.74609375 C70.57680846 92.21726859 70.94460842 95.45444963 71.859375 98.80859375 C72.8611646 103.24509053 72.86393948 106.69962693 70.6796875 110.73046875 C65.52949114 117.03901378 61.52613003 120.67271266 53.296875 121.74609375 C52.636875 121.74609375 51.976875 121.74609375 51.296875 121.74609375 C50.636875 127.02609375 49.976875 132.30609375 49.296875 137.74609375 C47.976875 137.74609375 46.656875 137.74609375 45.296875 137.74609375 C45.296875 137.08609375 45.296875 136.42609375 45.296875 135.74609375 C44.719375 135.70484375 44.141875 135.66359375 43.546875 135.62109375 C40.07767665 134.27196106 39.11986812 131.92163014 37.296875 128.74609375 C36.5881085 127.10304415 35.88090411 125.4591563 35.19921875 123.8046875 C32.01653887 116.54376846 28.91149282 110.31332987 22.296875 105.74609375 C20.22252768 110.85846156 20.05263435 115.20940268 20.171875 120.62109375 C20.18089844 121.40484375 20.18992187 122.18859375 20.19921875 122.99609375 C20.22259437 124.9128943 20.25845847 126.82953566 20.296875 128.74609375 C13.71644165 127.99172308 10.3026748 123.6988556 6.296875 118.74609375 C2.38771047 112.17108063 1.34687307 104.60477781 0.10546875 97.1640625 C-0.70282373 93.74736722 -1.56881319 91.5206991 -3.703125 88.74609375 C-7.28308759 87.37709021 -7.28308759 87.37709021 -10.703125 86.74609375 C-10.61546875 87.45765625 -10.5278125 88.16921875 -10.4375 88.90234375 C-10.79964921 92.77947058 -12.41729601 94.33398046 -14.953125 97.24609375 C-15.74203125 98.16390625 -16.5309375 99.08171875 -17.34375 100.02734375 C-18.12234375 100.92453125 -18.9009375 101.82171875 -19.703125 102.74609375 C-20.37085938 103.65230469 -21.03859375 104.55851562 -21.7265625 105.4921875 C-24.42599072 108.57038924 -26.53076622 109.03882396 -30.453125 109.72265625 C-34.19609733 109.76164555 -36.03121413 108.22715384 -38.703125 105.74609375 C-39.73669647 104.10003549 -40.74372832 102.43645933 -41.703125 100.74609375 C-43.188125 100.25109375 -43.188125 100.25109375 -44.703125 99.74609375 C-47.22316357 96.29761992 -46.862135 92.8803538 -46.703125 88.74609375 C-47.693125 88.74609375 -48.683125 88.74609375 -49.703125 88.74609375 C-48.39678003 95.00093026 -46.25633291 100.08929747 -43.203125 105.68359375 C-42.59791016 106.83311523 -42.59791016 106.83311523 -41.98046875 108.00585938 C-40.05569541 112.06555791 -40.05569541 112.06555791 -36.703125 114.74609375 C-31.91923358 114.93369734 -27.42290008 114.51666927 -22.703125 113.74609375 C-22.10688339 117.83460767 -21.77146169 121.30912153 -24.0859375 124.87890625 C-25.90819104 126.89048483 -27.78399438 128.82696313 -29.703125 130.74609375 C-34.50887008 135.96972971 -36.05622067 141.62579349 -37.80859375 148.44140625 C-38.703125 151.74609375 -38.703125 151.74609375 -39.80859375 154.32421875 C-40.85120547 157.14701032 -40.83621052 159.37136429 -40.828125 162.37109375 C-41.25927936 168.76785665 -43.6305974 172.18828372 -47.5859375 177.09375 C-49.57232213 179.58222816 -51.17634628 182.05527576 -52.765625 184.80859375 C-61.35744086 199.46384369 -61.35744086 199.46384369 -66.703125 202.74609375 C-69.40122276 202.48913206 -71.28663193 201.95434029 -73.703125 200.74609375 C-74.04791884 198.90424633 -74.30357952 197.04539971 -74.515625 195.18359375 C-75.27443561 190.1895611 -76.40869969 186.96822211 -79.26171875 182.86328125 C-84.45416625 175.23643425 -88.10326891 168.08569004 -86.703125 158.74609375 C-86.24420324 156.77655452 -85.71280047 154.84238878 -85.15625 152.8984375 C-84.25382087 148.61189913 -84.20566832 144.09152412 -84.703125 139.74609375 C-86.61337997 137.45540104 -86.61337997 137.45540104 -89.828125 137.18359375 C-95.36034182 137.98665748 -97.77478879 140.97311547 -101.703125 144.74609375 C-106.84778535 149.27177129 -112.33338702 152.84487404 -118.328125 156.12109375 C-119.26023804 156.64014282 -119.26023804 156.64014282 -120.21118164 157.16967773 C-124.3613891 159.36432459 -128.01814421 160.45038333 -132.703125 160.74609375 C-134.90599982 159.3509397 -135.50753241 158.39422712 -136.25415039 155.92016602 C-138.08513527 147.05397767 -138.55608968 134.8654588 -134.453125 126.68359375 C-128.55091479 117.90702112 -120.25468827 110.65626623 -111.80859375 104.41015625 C-108.72382447 101.97210112 -106.04500066 99.18668283 -103.33203125 96.34765625 C-99.75666426 92.83230741 -95.66330677 93.59873529 -90.953125 93.62109375 C-89.75429688 93.61529297 -89.75429688 93.61529297 -88.53125 93.609375 C-84.14273682 93.61659295 -80.02339334 93.86810373 -75.703125 94.74609375 C-75.73792969 94.09382813 -75.77273438 93.4415625 -75.80859375 92.76953125 C-75.98335479 87.12724615 -75.52709146 83.74234211 -72.703125 78.74609375 C-70.65567184 72.14874468 -70.13861869 65.62230991 -69.703125 58.74609375 C-77.7477823 59.55385647 -82.17470613 61.91916414 -87.703125 67.74609375 C-88.52103516 68.535 -88.52103516 68.535 -89.35546875 69.33984375 C-92.72088103 72.83370688 -94.37621895 76.2057929 -96.078125 80.74609375 C-98.30394518 86.4430483 -101.13270852 90.88533736 -106.703125 93.74609375 C-111.26874455 94.22076829 -114.7885766 93.27126652 -119.078125 91.74609375 C-120.66753906 91.18921875 -120.66753906 91.18921875 -122.2890625 90.62109375 C-123.08570313 90.33234375 -123.88234375 90.04359375 -124.703125 89.74609375 C-124.23784861 85.21950653 -122.84419345 83.50377773 -119.390625 80.62109375 C-118.61074219 79.95851563 -117.83085937 79.2959375 -117.02734375 78.61328125 C-116.26035156 77.99710937 -115.49335938 77.3809375 -114.703125 76.74609375 C-113.98769531 76.17117187 -113.27226562 75.59625 -112.53515625 75.00390625 C-110.703125 73.74609375 -110.703125 73.74609375 -108.703125 73.74609375 C-109.033125 71.76609375 -109.363125 69.78609375 -109.703125 67.74609375 C-110.693125 67.74609375 -111.683125 67.74609375 -112.703125 67.74609375 C-113.06446103 61.36249051 -113.06446103 61.36249051 -111.640625 58.93359375 C-109.466997 57.60137014 -107.34643711 57.0191113 -104.88891602 56.39282227 C-102.2645217 55.61632047 -99.8127157 54.59240152 -97.29296875 53.5234375 C-92.86603973 51.65592668 -88.43150417 49.81110165 -83.984375 47.9921875 C-81.72379995 47.05637208 -79.46338397 46.12017232 -77.203125 45.18359375 C-75.47449219 44.48073242 -75.47449219 44.48073242 -73.7109375 43.76367188 C-72.60492188 43.30283203 -71.49890625 42.84199219 -70.359375 42.3671875 C-69.36744141 41.95911865 -68.37550781 41.5510498 -67.35351562 41.13061523 C-64.56916765 39.67611658 -62.86755477 37.98957174 -60.703125 35.74609375 C-60.043125 35.74609375 -59.383125 35.74609375 -58.703125 35.74609375 C-59.97287472 31.33087266 -59.97287472 31.33087266 -62.703125 27.74609375 C-66.11371602 27.86035141 -67.48591827 28.54896495 -70.02734375 30.85546875 C-70.80722656 31.726875 -71.58710938 32.59828125 -72.390625 33.49609375 C-77.40657998 38.72167073 -82.92663259 43.43176092 -90.43359375 43.92578125 C-92.703125 43.74609375 -92.703125 43.74609375 -93.703125 42.74609375 C-93.6171875 40.75 -93.6171875 40.75 -93.328125 38.30859375 C-93.19277344 37.10396484 -93.19277344 37.10396484 -93.0546875 35.875 C-92.703125 33.74609375 -92.703125 33.74609375 -91.703125 31.74609375 C-91.043125 31.74609375 -90.383125 31.74609375 -89.703125 31.74609375 C-89.60773438 31.17117187 -89.51234375 30.59625 -89.4140625 30.00390625 C-88.54631605 27.24809608 -87.25650183 25.76102247 -85.328125 23.62109375 C-84.72226562 22.93789062 -84.11640625 22.2546875 -83.4921875 21.55078125 C-80.4332306 18.46510857 -77.92859729 17.32547659 -73.703125 16.74609375 C-71.81055177 16.74440471 -69.91743074 16.79753932 -68.02734375 16.89453125 C-66.95162109 16.92933594 -65.87589844 16.96414062 -64.76757812 17 C-62.52701368 17.08034413 -60.2871641 17.18429607 -58.04882812 17.3125 C-52.23399661 17.45830473 -48.58259659 17.30904046 -44.0859375 13.39453125 C-42.9318001 12.20353641 -41.80125399 10.98891898 -40.703125 9.74609375 C-39.775 8.83859375 -38.846875 7.93109375 -37.890625 6.99609375 C-35.80062919 4.91757869 -35.80062919 4.91757869 -34.46484375 3.203125 C-31.94467656 1.11881821 -29.51390612 0.82147899 -26.328125 0.18359375 C-23.07874315 -0.47748738 -20.0925171 -1.09383544 -17.0234375 -2.35546875 C-11.4562787 -4.51110263 -5.33845957 -1.92368629 0 0 Z " fill="#77B257" transform="translate(351.703125,137.25390625)"/>
<path d="M0 0 C1.54276198 0.40443539 3.08572995 0.80808589 4.62890625 1.2109375 C8.28320506 2.16735895 11.93402146 3.13619073 15.58300781 4.1126709 C17.29671544 4.57067083 19.01156487 5.0243935 20.7265625 5.47753906 C21.65210937 5.7247168 22.57765625 5.97189453 23.53125 6.2265625 C24.28986328 6.42846191 25.04847656 6.63036133 25.83007812 6.83837891 C28.16306129 7.52573002 30.45193013 8.28040996 32.75390625 9.06347656 C37.26040333 10.57755406 41.80233285 11.82873108 46.40625 13.0078125 C47.2374234 13.22361465 48.0685968 13.43941681 48.92495728 13.66175842 C50.69950702 14.12237707 52.47438724 14.58172414 54.24957275 15.03988647 C58.92606342 16.24727681 63.59985415 17.4650054 68.2734375 18.68359375 C69.68506668 19.05152794 69.68506668 19.05152794 71.12521362 19.42689514 C84.94999585 23.03865652 98.72192594 26.8391328 112.5 30.625 C112.5 40.195 112.5 49.765 112.5 59.625 C106.63695398 58.4523908 100.95108838 57.29276587 95.1875 55.8125 C88.78605207 54.18239007 82.36739446 52.63876829 75.9375 51.125 C68.69944289 49.41395055 61.50187098 47.6105194 54.32421875 45.66015625 C50.62149738 44.65788744 46.91221396 43.68506568 43.20019531 42.71801758 C24.13117193 37.74324807 24.13117193 37.74324807 19 35.5625 C15.75552299 34.34582112 12.48154236 33.77499901 9.08203125 33.1328125 C5.51589158 32.43145371 2.0176166 31.53697467 -1.5 30.625 C-1.5 29.965 -1.5 29.305 -1.5 28.625 C-13.07263321 28.732463 -13.07263321 28.732463 -22.95703125 33.98046875 C-28.68712398 40.40411737 -28.79221687 46.16321826 -28.76742554 54.36453247 C-28.77195665 55.45951896 -28.77648776 56.55450544 -28.78115618 57.68267334 C-28.79383601 61.35896681 -28.79217746 65.03511283 -28.79052734 68.71142578 C-28.79651045 71.34453014 -28.80331549 73.97763275 -28.81088257 76.61073303 C-28.82749064 83.02599043 -28.83299208 89.44121108 -28.83410732 95.85648818 C-28.83505817 101.07367154 -28.8391703 106.29084278 -28.84550858 111.50802231 C-28.86312274 126.30856056 -28.87234752 141.10906982 -28.87084763 155.90961863 C-28.87076772 156.70740347 -28.8706878 157.5051883 -28.87060547 158.32714844 C-28.87052371 159.12591089 -28.87044195 159.92467334 -28.87035771 160.74764071 C-28.86954541 173.68269443 -28.88866836 186.61763153 -28.9168822 199.55265154 C-28.94564144 212.84294709 -28.95942073 226.13318584 -28.95769465 239.42351329 C-28.95703165 246.88142309 -28.96248377 254.33921073 -28.98405075 261.79709244 C-29.00230292 268.14935737 -29.00657717 274.50144482 -28.9930319 280.85372467 C-28.98652156 284.091641 -28.98850682 287.32914822 -29.0037384 290.56704521 C-29.01921727 294.08618667 -29.00986393 297.60444273 -28.99447632 301.12356567 C-29.00476344 302.13477891 -29.01505057 303.14599215 -29.02564943 304.18784821 C-28.91408248 315.78234339 -24.87828683 325.01672687 -16.875 333.30859375 C-6.3361151 343.09121608 9.543195 345.45454942 23.06591797 348.76928711 C27.89010617 349.95555544 32.67169989 351.21795425 37.4375 352.625 C43.26976054 354.3346934 49.14514154 355.74878523 55.0625 357.125 C61.89505868 358.71485247 68.57634881 360.49798225 75.25390625 362.66015625 C79.91849432 364.04662226 84.65495269 365.06348246 89.40405273 366.11645508 C93.42004556 367.03691024 97.04817496 368.15624066 100.8125 369.875 C106.27270677 372.28918468 111.63262625 371.98793034 117.5 371.625 C114.5 373.625 114.5 373.625 112.5 373.625 C112.5 383.195 112.5 392.765 112.5 402.625 C105.46899972 401.62057139 98.85777387 400.03641688 92 398.25 C90.80246094 397.94578125 89.60492188 397.6415625 88.37109375 397.328125 C87.20707031 397.02648437 86.04304687 396.72484375 84.84375 396.4140625 C83.26883789 396.00728271 83.26883789 396.00728271 81.66210938 395.59228516 C78.5 394.625 78.5 394.625 75.14355469 393.16210938 C71.09903207 391.45584334 67.10350495 390.32352431 62.859375 389.2421875 C62.03147461 389.02656662 61.20357422 388.81094574 60.35058594 388.58879089 C57.65171665 387.88729385 54.95090355 387.19361922 52.25 386.5 C50.36999299 386.01276737 48.4901115 385.52505021 46.61035156 385.03686523 C37.55702734 382.68889658 28.49713065 380.36646097 19.4375 378.04296875 C18.25888397 377.74051239 18.25888397 377.74051239 17.05645752 377.4319458 C13.38716954 376.49060712 9.71733033 375.55159617 6.04589844 374.61865234 C-18.65573822 368.32440923 -36.65647629 362.68824123 -51.5 340.625 C-57.02458409 330.46775263 -58.7982855 321.85420636 -58.77415466 310.40560913 C-58.77939134 309.1755677 -58.78462802 307.94552627 -58.79002339 306.67821085 C-58.8024073 303.27578278 -58.80586755 299.87356165 -58.80542648 296.47112536 C-58.80707871 292.79678138 -58.82015286 289.12247467 -58.83161926 285.44815063 C-58.85443768 277.41902323 -58.86238657 269.38992232 -58.86744571 261.36076689 C-58.87070661 256.34320528 -58.8772315 251.32565131 -58.8844471 246.30809402 C-58.90400945 232.40403427 -58.92041562 218.49998161 -58.92332363 204.59590721 C-58.9235112 203.70670477 -58.92369877 202.81750232 -58.92389202 201.90135435 C-58.92425827 200.09887799 -58.92462196 198.29640162 -58.92498314 196.49392526 C-58.92525735 195.1518761 -58.92525735 195.1518761 -58.92553711 193.78271484 C-58.92571766 192.88691773 -58.92589821 191.99112061 -58.92608423 191.06817813 C-58.92962427 176.55998692 -58.95663763 162.05194428 -58.994035 147.54380457 C-59.03216133 132.63299862 -59.05148143 117.72226631 -59.05178314 102.81141055 C-59.05236676 94.4457669 -59.06079703 86.08030049 -59.08978081 77.71470261 C-59.11435273 70.58994763 -59.12153861 63.46543452 -59.10653328 56.34064858 C-59.0993878 52.7095346 -59.1001184 49.07889764 -59.12294388 45.44783783 C-59.14751871 41.50044757 -59.13283174 37.55372932 -59.11473083 33.60629272 C-59.1279308 32.47386812 -59.14113077 31.34144351 -59.15473074 30.174703 C-59.05801796 20.89509326 -56.97016387 11.87595074 -51 4.5625 C-49.7625 3.6034375 -49.7625 3.6034375 -48.5 2.625 C-47.71625 1.92375 -46.9325 1.2225 -46.125 0.5 C-31.94116624 -9.63130983 -15.31636749 -4.08608331 0 0 Z " fill="#CAD5DD" transform="translate(58.5,76.375)"/>
<path d="M0 0 C0.95455078 -0.01224609 1.90910156 -0.02449219 2.89257812 -0.03710938 C3.81361328 -0.03904297 4.73464844 -0.04097656 5.68359375 -0.04296875 C6.5233374 -0.04707764 7.36308105 -0.05118652 8.22827148 -0.05541992 C10.80001699 0.21221806 12.39419548 0.79113839 14.5625 2.1875 C15.57421875 4.53515625 15.57421875 4.53515625 16.25 7.25 C16.87785105 10.50340139 16.87785105 10.50340139 18.5625 13.1875 C21.74192343 13.44091687 24.93668874 13.37274039 28.125 13.375 C29.00736328 13.38724609 29.88972656 13.39949219 30.79882812 13.41210938 C37.01754321 13.4258981 42.89711632 13.02019184 48.5625 10.1875 C59.64702328 9.01361819 67.63740617 13.05612899 77.23828125 18.0390625 C79.59110751 19.24060352 79.59110751 19.24060352 82.23828125 20.25 C84.71268628 21.24807934 86.04180529 21.99094098 87.5625 24.1875 C87.3984375 26.16015625 87.3984375 26.16015625 86.5625 28.1875 C84.671875 29.34765625 84.671875 29.34765625 82.3125 30.25 C75.94640043 32.49945169 75.94640043 32.49945169 71.5625 37.1875 C71.49253986 38.89452735 71.47809846 40.60418003 71.5 42.3125 C71.50902344 43.22257812 71.51804687 44.13265625 71.52734375 45.0703125 C71.53894531 45.76898438 71.55054688 46.46765625 71.5625 47.1875 C72.17738281 47.49429688 72.79226562 47.80109375 73.42578125 48.1171875 C74.87111285 48.84117444 76.31244749 49.57318728 77.75 50.3125 C81.60429042 51.51161257 85.5663767 51.91763648 89.5625 51.1875 C91.98729736 47.55030395 91.94912577 45.33046518 92.1875 41 C92.26226562 39.72769531 92.33703125 38.45539063 92.4140625 37.14453125 C92.48753906 35.68080078 92.48753906 35.68080078 92.5625 34.1875 C94.5425 34.6825 94.5425 34.6825 96.5625 35.1875 C96.5625 35.8475 96.5625 36.5075 96.5625 37.1875 C97.119375 37.22875 97.67625 37.27 98.25 37.3125 C102.57414952 38.94866468 104.97846916 42.99289147 106.9375 47 C107.741875 48.0828125 107.741875 48.0828125 108.5625 49.1875 C109.614375 49.27 110.66625 49.3525 111.75 49.4375 C117.45053115 50.55891596 120.37700737 54.4713161 123.5625 59.1875 C123.5625 60.1775 123.5625 61.1675 123.5625 62.1875 C121.57682292 62.61067708 119.59114583 63.03385417 117.60546875 63.45703125 C115.08429878 64.35848208 114.08297198 64.96241906 112.5625 67.1875 C111.98031668 70.6098884 111.98031668 70.6098884 111.875 74.375 C111.77638672 76.28345703 111.77638672 76.28345703 111.67578125 78.23046875 C111.63839844 79.20628906 111.60101563 80.18210937 111.5625 81.1875 C110.00283782 81.696283 108.43960759 82.19413469 106.875 82.6875 C106.00488281 82.9659375 105.13476562 83.244375 104.23828125 83.53125 C101.51385998 84.19942923 99.35295418 84.44664666 96.5625 84.1875 C95.0775 83.1975 95.0775 83.1975 93.5625 82.1875 C91.53193035 82.08654719 91.53193035 82.08654719 89.5625 83.1875 C87.52539692 85.63372517 87.52539692 85.63372517 85.6875 88.6875 C81.74119731 94.96167787 81.74119731 94.96167787 79.7109375 97.52734375 C74.78039916 103.80151221 74.91276476 109.40270926 75.5625 117.1875 C73.5825 116.6925 73.5825 116.6925 71.5625 116.1875 C71.35753906 115.33285156 71.15257812 114.47820312 70.94140625 113.59765625 C70.67199219 112.49292969 70.40257812 111.38820313 70.125 110.25 C69.85816406 109.14785156 69.59132813 108.04570312 69.31640625 106.91015625 C68.83254275 104.29328746 68.83254275 104.29328746 67.5625 103.1875 C65.39769203 103.0885706 63.22956215 103.057789 61.0625 103.0625 C59.8765625 103.05992187 58.690625 103.05734375 57.46875 103.0546875 C54.66990578 102.85539781 54.66990578 102.85539781 53.5625 104.1875 C53.43506575 106.61764159 53.37728879 109.00680235 53.375 111.4375 C53.36275391 112.10652344 53.35050781 112.77554688 53.33789062 113.46484375 C53.32602699 117.4905706 53.69810923 120.60263634 55.5625 124.1875 C57.95603344 126.58103344 59.09261003 126.60828194 62.375 127.125 C66.34360402 127.84290956 69.25724611 128.76364715 72.5625 131.1875 C70.91741434 132.99709422 69.69595311 134.12862363 67.4375 135.125 C65.35528299 136.03395565 65.35528299 136.03395565 64.8125 138.3125 C64.73 138.93125 64.6475 139.55 64.5625 140.1875 C65.2225 140.1875 65.8825 140.1875 66.5625 140.1875 C67.7279042 141.65257957 68.89286982 143.11801217 70.0546875 144.5859375 C72.51745009 147.20182523 75.37821973 148.56414143 78.5625 150.1875 C78.60375 149.589375 78.645 148.99125 78.6875 148.375 C79.5625 146.1875 79.5625 146.1875 82.09375 144.625 C86.09769946 142.96570563 89.65782887 142.42177591 93.9375 142 C94.67355469 141.91814453 95.40960938 141.83628906 96.16796875 141.75195312 C97.96504625 141.55357444 99.76364893 141.36909423 101.5625 141.1875 C102.2225 142.1775 102.8825 143.1675 103.5625 144.1875 C107.34428361 144.50855962 111.03154961 144.57536624 114.82226562 144.5390625 C119.03508333 144.62186973 120.98653558 144.7488568 124.4296875 147.37109375 C126.51744525 150.12800463 128.26098893 152.81797129 129.875 155.875 C130.38675781 156.82761719 130.89851562 157.78023437 131.42578125 158.76171875 C132.5625 161.1875 132.5625 161.1875 132.5625 163.1875 C136.1925 163.1875 139.8225 163.1875 143.5625 163.1875 C142.49861959 168.50690206 140.88238145 170.37288541 137.25 174 C130.67933045 180.88936859 127.80210948 186.35402252 126.09765625 195.75 C124.2051892 204.36970395 118.44389001 209.92666548 112.5625 216.1875 C111.34766182 217.57767565 110.13876166 218.97307612 108.9375 220.375 C106.08691102 223.65850553 103.07497794 226.72479705 99.9453125 229.7421875 C98.45395515 231.15859777 98.45395515 231.15859777 97.5625 233.1875 C95.84881075 234.17616688 94.1327178 235.16119676 92.3984375 236.11328125 C89.91793322 237.56464014 87.78639129 239.3732729 85.5625 241.1875 C81.7430654 243.92965818 79.27021814 244.61547438 74.5625 244.1875 C74.2325 243.8575 73.9025 243.5275 73.5625 243.1875 C73.90043704 237.66786176 75.33380367 232.75220861 78.5625 228.1875 C79.5525 227.8575 80.5425 227.5275 81.5625 227.1875 C82.33362101 225.18278611 82.33362101 225.18278611 82.6875 222.8125 C83.18180837 220.15017247 83.70249007 217.7675298 84.5625 215.1875 C86.08112827 205.45729639 86.08112827 205.45729639 83.42871094 196.28222656 C80.24288209 192.41634996 76.40553496 189.37202294 72.5625 186.1875 C68.31537564 181.26577647 65.66545713 175.12177825 65.4375 168.625 C66.97014763 163.94191003 69.35611385 159.93820635 72.5625 156.1875 C73.2225 156.1875 73.8825 156.1875 74.5625 156.1875 C70.22859244 151.21704977 65.87094695 146.26951775 61.46875 141.359375 C60.27397969 139.9981203 59.10291537 138.61527208 57.96875 137.203125 C55.04926647 133.56929976 52.67209767 131.68041854 48.46875 129.5234375 C44.95523058 127.06109398 42.59216652 123.50091919 39.97265625 120.14453125 C36.81634125 116.27203457 33.32058609 112.84171946 29.7265625 109.37890625 C26.35586477 105.96561848 24.40605801 103.76191208 23.9375 98.9375 C22.73891078 92.78203335 18.49179478 89.68463481 13.5625 86.1875 C12.49 85.65125 11.4175 85.115 10.3125 84.5625 C3.46672655 81.13961328 0.70681561 73.90652499 -2.25 67.25 C-2.65669922 66.38181641 -3.06339844 65.51363281 -3.48242188 64.61914062 C-5.7614608 59.55163054 -7.03942732 55.74988858 -6.4375 50.1875 C-6.1075 49.5275 -5.7775 48.8675 -5.4375 48.1875 C-5.26146853 45.77500308 -5.17005032 43.35599105 -5.125 40.9375 C-5.08761719 39.63296875 -5.05023438 38.3284375 -5.01171875 36.984375 C-5.50260864 32.60689822 -6.57839862 30.5054695 -9.4375 27.1875 C-13.0740731 26.21399222 -13.0740731 26.21399222 -16.4375 26.1875 C-16.7675 26.8475 -17.0975 27.5075 -17.4375 28.1875 C-19.4175 28.1875 -21.3975 28.1875 -23.4375 28.1875 C-26.25338899 23.20640553 -26.0033664 18.57654765 -25.078125 13.03515625 C-23.51254121 7.5238782 -20.37824259 5.24292088 -15.59375 2.31640625 C-10.46754186 -0.36742374 -5.64533902 0.00379646 0 0 Z " fill="#5C913D" transform="translate(74.4375,163.8125)"/>
<path d="M0 0 C4.29 1.32 8.58 2.64 13 4 C15.4440625 4.4640625 15.4440625 4.4640625 17.9375 4.9375 C22.51577124 5.91374901 24.83117975 7.52202656 28 11 C29.3125 14.75 29.3125 14.75 30 18 C31.16302154 19.38528649 31.16302154 19.38528649 34.375 19.1875 C38.09675391 19.30453853 38.09675391 19.30453853 41 17 C44.21394177 17.40758929 47.02993426 18.80315822 49.9375 20.1875 C50.77152344 20.57292969 51.60554688 20.95835937 52.46484375 21.35546875 C55 23 55 23 57.33984375 26.1328125 C59.77597437 29.32401924 59.77597437 29.32401924 63.6015625 29.69921875 C64.94255557 29.71983407 66.28412861 29.71491025 67.625 29.6875 C69.05229603 29.71947143 70.47942745 29.75987456 71.90625 29.80859375 C72.60234375 29.83163574 73.2984375 29.85467773 74.015625 29.87841797 C81.09253089 30.31201776 86.0667113 32.13827221 91.36181641 36.76074219 C94.16939084 38.88462413 97.31665348 39.88359334 100.625 41 C102.03452017 41.50073335 103.44336881 42.00336076 104.8515625 42.5078125 C105.54668945 42.7543457 106.24181641 43.00087891 106.95800781 43.25488281 C111.70996983 44.98886034 116.35086286 47.01002842 121 49 C121 50.32 121 51.64 121 53 C121.66 53 122.32 53 123 53 C122.62073124 55.61525625 122.2303394 56.77967536 120.29296875 58.6328125 C119.59816406 59.12523437 118.90335937 59.61765625 118.1875 60.125 C117.50042969 60.62257812 116.81335938 61.12015625 116.10546875 61.6328125 C110.88669488 65.0216267 110.88669488 65.0216267 107.4375 64.9375 C104.19847491 63.69172112 103.72022526 61.93871816 102 59 C98.59985328 57.12097155 95.85017077 56.77999024 92 57 C89.51652173 63.35954397 89.51652173 63.35954397 88 70 C88.63808594 69.98839844 89.27617187 69.97679687 89.93359375 69.96484375 C90.75988281 69.95582031 91.58617187 69.94679688 92.4375 69.9375 C93.26121094 69.92589844 94.08492188 69.91429687 94.93359375 69.90234375 C97 70 97 70 98 71 C98.09908783 72.78940972 98.12970379 74.58285508 98.125 76.375 C98.12886719 77.84066406 98.12886719 77.84066406 98.1328125 79.3359375 C98 82 98 82 97 85 C96.40832031 84.94199219 95.81664062 84.88398438 95.20703125 84.82421875 C89.69553297 84.49399426 89.69553297 84.49399426 85.0625 87.375 C84.381875 88.24125 83.70125 89.1075 83 90 C82.34 90.66 81.68 91.32 81 92 C81.27993346 95.47117484 81.64773342 98.70835588 82.5625 102.0625 C83.5642896 106.49899678 83.56706448 109.95353318 81.3828125 113.984375 C76.23261614 120.29292003 72.22925503 123.92661891 64 125 C63.34 125 62.68 125 62 125 C61.34 130.28 60.68 135.56 60 141 C58.68 141 57.36 141 56 141 C56 140.34 56 139.68 56 139 C55.4225 138.95875 54.845 138.9175 54.25 138.875 C50.78080165 137.52586731 49.82299312 135.17553639 48 132 C47.2912335 130.3569504 46.58402911 128.71306255 45.90234375 127.05859375 C42.71966387 119.79767471 39.61461782 113.56723612 33 109 C30.92565268 114.11236781 30.75575935 118.46330893 30.875 123.875 C30.88402344 124.65875 30.89304687 125.4425 30.90234375 126.25 C30.92571937 128.16680055 30.96158347 130.08344191 31 132 C24.41956665 131.24562933 21.0057998 126.95276185 17 122 C13.09083547 115.42498688 12.04999807 107.85868406 10.80859375 100.41796875 C9.97789594 96.90656498 9.3352016 94.7499097 7 92 C4.69 91.34 2.38 90.68 0 90 C0 60.3 0 30.6 0 0 Z " fill="#5B913C" transform="translate(341,134)"/>
<path d="M0 0 C0 9.57 0 19.14 0 29 C-6.06172063 30.62795025 -12.1240897 32.25336353 -18.1875 33.875 C-19.14873779 34.13210754 -20.10997559 34.38921509 -21.1003418 34.65411377 C-34.92566664 38.34846339 -48.76395028 41.99065345 -62.61328125 45.59375 C-63.3703002 45.79077641 -64.12731915 45.98780281 -64.90727806 46.19079971 C-71.76663454 47.97599127 -78.62612446 49.76066025 -85.48764038 51.53753662 C-107.28629805 57.18263116 -128.97361073 63.10186732 -150.52734375 69.62890625 C-151.47996094 69.91121094 -152.43257812 70.19351563 -153.4140625 70.484375 C-154.2282666 70.72897461 -155.0424707 70.97357422 -155.88134766 71.22558594 C-160.53620415 72.38146544 -165.2811414 73.14202571 -170 74 C-170 64.43 -170 54.86 -170 45 C-165 43 -165 43 -161 43 C-161 42.34 -161 41.68 -161 41 C-159.76507813 40.69707031 -158.53015625 40.39414062 -157.2578125 40.08203125 C-148.88990422 38.01671418 -140.54267431 35.91345697 -132.25 33.5625 C-124.27603391 31.30455203 -116.25242005 29.27829651 -108.20019531 27.31860352 C-102.24963693 25.85770338 -96.34368539 24.27355111 -90.4453125 22.6171875 C-81.77875623 20.18594366 -73.06972966 17.94945243 -64.34234619 15.74832153 C-39.75863478 9.81271648 -39.75863478 9.81271648 -15.69433594 2.14404297 C-14.94700195 1.86834473 -14.19966797 1.59264648 -13.4296875 1.30859375 C-12.79015137 1.05779053 -12.15061523 0.8069873 -11.49169922 0.54858398 C-7.74646685 -0.27598364 -3.83492859 0 0 0 Z " fill="#E0E7ED" transform="translate(341,405)"/>
<path d="M0 0 C0 9.57 0 19.14 0 29 C-12.34198299 32.72525297 -24.72771103 36.00624051 -37.25 39.0625 C-49.8993659 42.15039173 -62.38593644 45.4024224 -74.72265625 49.6015625 C-79.23496922 51.12381331 -83.80917247 52.26492025 -88.4375 53.375 C-94.90777002 54.95780688 -101.34229768 56.61798394 -107.75 58.4375 C-115.81994017 60.723033 -123.94418325 62.75473479 -132.08764648 64.76049805 C-139.0514067 66.48512855 -145.97171912 68.32324353 -152.85351562 70.3515625 C-158.58236256 72.00291818 -164.02739544 72.9140719 -170 74 C-170 64.43 -170 54.86 -170 45 C-154.51999699 40.50821686 -138.98338865 36.33242041 -123.375 32.3125 C-120.06260377 31.45713294 -116.75040807 30.60099726 -113.43838501 29.7441864 C-111.40281217 29.2178196 -109.36700333 28.69236418 -107.3309021 28.16804504 C-102.55815723 26.93610705 -97.79042214 25.68679315 -93.03027344 24.40698242 C-91.71684967 24.05394295 -91.71684967 24.05394295 -90.37689209 23.69377136 C-88.275427 23.08039211 -86.27161543 22.378802 -84.2421875 21.5625 C-78.05025136 19.14948905 -71.5481182 17.66693507 -65.125 16 C-63.65469947 15.61564339 -62.18448668 15.23095101 -60.71435547 14.84594727 C-58.36118977 14.23000382 -56.00787346 13.61466697 -53.65408325 13.00111389 C-48.25668133 11.59383259 -42.86364806 10.17079904 -37.47293091 8.73812866 C-33.63275596 7.71781606 -29.79151332 6.70155966 -25.95013428 5.68579102 C-24.07069638 5.18798583 -22.19166504 4.68864309 -20.31304932 4.18774414 C-17.67083759 3.48381113 -15.0270503 2.78612123 -12.3828125 2.08984375 C-11.19751953 1.77176003 -11.19751953 1.77176003 -9.98828125 1.44725037 C-6.51081833 0.5375308 -3.62083515 0 0 0 Z " fill="#E0E7ED" transform="translate(341,62)"/>
<path d="M0 0 C0.680625 1.6396875 0.680625 1.6396875 1.375 3.3125 C2.76663783 5.78597643 3.4875397 6.80771238 6.17578125 7.81640625 C7.00464844 8.00074219 7.83351563 8.18507813 8.6875 8.375 C15.72871912 10.05197674 20.29805458 14.9212671 24.2265625 20.8515625 C25.33243537 22.94962038 26 24.61184761 26 27 C26.66 27 27.32 27 28 27 C31.05619645 29.88976991 31.50540982 32.77452906 31.72119141 36.89086914 C31.81323973 44.02929449 31.62434414 48.46034105 26.625 54.0625 C22.49750416 58 22.49750416 58 20 58 C20 58.66 20 59.32 20 60 C16.72867486 62.18088343 15.79194135 62.47826287 12 62 C9.6484375 60.609375 9.6484375 60.609375 7.375 58.75 C6.61960937 58.14671875 5.86421875 57.5434375 5.0859375 56.921875 C1.77466713 53.87104162 0.18421999 51.55265998 -1.25 47.25 C-2.99791434 42.34664029 -5.96842221 38.29931162 -10 35 C-13.3424695 33.96640559 -14.63145828 33.87715276 -18 35 C-18.33 35.99 -18.66 36.98 -19 38 C-24.04473164 40.308606 -29.46271835 41.43715381 -35 41 C-35.1509051 36.77465723 -35.16420166 33.13720581 -34 29.0625 C-32.61980384 24.06421821 -31.84688699 18.57232903 -34.015625 13.734375 C-34.34046875 13.16203125 -34.6653125 12.5896875 -35 12 C-24.47585069 3.1080683 -13.84279612 -0.51269615 0 0 Z " fill="#5B913F" transform="translate(420,312)"/>
<path d="M0 0 C0.33 0.66 0.66 1.32 1 2 C2.86205078 2.02126953 2.86205078 2.02126953 4.76171875 2.04296875 C6.40368243 2.089882 8.04560837 2.13812932 9.6875 2.1875 C10.91243164 2.19620117 10.91243164 2.19620117 12.16210938 2.20507812 C16.38489157 2.35894468 18.43491901 2.56851153 21.875 5.1953125 C23.96044695 7.9477958 25.70075661 10.6347664 27.3125 13.6875 C27.82425781 14.64011719 28.33601563 15.59273438 28.86328125 16.57421875 C30 19 30 19 30 21 C33.63 21 37.26 21 41 21 C39.93611959 26.31940206 38.31988145 28.18538541 34.6875 31.8125 C28.11683045 38.70186859 25.23960948 44.16652252 23.53515625 53.5625 C21.6426892 62.18220395 15.88139001 67.73916548 10 74 C8.78516182 75.39017565 7.57626166 76.78557612 6.375 78.1875 C3.52441102 81.47100553 0.51247794 84.53729705 -2.6171875 87.5546875 C-4.10854485 88.97109777 -4.10854485 88.97109777 -5 91 C-5.66 90.67 -6.32 90.34 -7 90 C-6.67 60.3 -6.34 30.6 -6 0 C-3 -1 -3 -1 0 0 Z " fill="#77B257" transform="translate(177,306)"/>
<path d="M0 0 C4.875 0.875 4.875 0.875 6 2 C6.09381302 3.84118029 6.11743954 5.68597641 6.11352539 7.52954102 C6.11344986 8.71068985 6.11337433 9.89183868 6.11329651 11.10877991 C6.10813522 12.3941716 6.10297394 13.67956329 6.09765625 15.00390625 C6.0962413 16.31205795 6.09482635 17.62020966 6.09336853 18.96800232 C6.0895441 22.45162859 6.07971446 25.93521339 6.06866455 29.41882324 C6.05844882 32.97126708 6.05387056 36.52371759 6.04882812 40.07617188 C6.03809212 47.05079832 6.0210166 54.02539717 6 61 C4.53626953 61.29003906 4.53626953 61.29003906 3.04296875 61.5859375 C1.77066406 61.84632813 0.49835938 62.10671875 -0.8125 62.375 C-2.07707031 62.63023437 -3.34164062 62.88546875 -4.64453125 63.1484375 C-8.10239018 63.82777181 -8.10239018 63.82777181 -11 66 C-11.33 66.99 -11.66 67.98 -12 69 C-16.84146109 67.53289058 -20.55948972 64.6487256 -24 61 C-24 60.34 -24 59.68 -24 59 C-24.66 59 -25.32 59 -26 59 C-25.875 56.6875 -25.875 56.6875 -25 54 C-21.9375 52.1875 -21.9375 52.1875 -19 51 C-21.98277405 48.45221383 -24.13378219 47.5870326 -28 47.0625 C-31.28710669 46.47672694 -32.8223054 46.13002044 -35.5625 44.125 C-38.43856661 39.87342327 -38.18271721 35.36822871 -38.1875 30.375 C-38.19974609 29.694375 -38.21199219 29.01375 -38.22460938 28.3125 C-38.22986355 26.54009244 -38.12215906 24.7682006 -38 23 C-36 21 -36 21 -33.03125 20.734375 C-31.8659375 20.73953125 -30.700625 20.7446875 -29.5 20.75 C-28.3346875 20.74484375 -27.169375 20.7396875 -25.96875 20.734375 C-23 21 -23 21 -21 23 C-20.17074687 26.09558889 -19.5317098 29.21046891 -18.87890625 32.34765625 C-18.58886719 33.22292969 -18.29882812 34.09820312 -18 35 C-16.515 35.495 -16.515 35.495 -15 36 C-15.18820313 35.23558594 -15.37640625 34.47117187 -15.5703125 33.68359375 C-16.89573703 25.92706007 -15.84392409 21.46768386 -11.4375 15.1875 C-9.67524161 12.75026808 -7.85073428 10.37034996 -6 8 C-4.7908332 6.3547789 -3.58230421 4.7090884 -2.375 3.0625 C-1.59125 2.051875 -0.8075 1.04125 0 0 Z " fill="#55ABEA" transform="translate(165,245)"/>
<path d="M0 0 C4.68962317 1.17240579 6.33631864 3.20902687 9 7 C9.45375 7.928125 9.9075 8.85625 10.375 9.8125 C10.91125 10.534375 11.4475 11.25625 12 12 C13.5778125 12.12375 13.5778125 12.12375 15.1875 12.25 C20.88803115 13.37141596 23.81450737 17.2838161 27 22 C27 22.99 27 23.98 27 25 C24.02148438 25.63476562 24.02148438 25.63476562 21.04296875 26.26953125 C18.52179878 27.17098208 17.52047198 27.77491906 16 30 C15.41781668 33.4223884 15.41781668 33.4223884 15.3125 37.1875 C15.24675781 38.45980469 15.18101562 39.73210937 15.11328125 41.04296875 C15.07589844 42.01878906 15.03851563 42.99460938 15 44 C13.44033782 44.508783 11.87710759 45.00663469 10.3125 45.5 C9.44238281 45.7784375 8.57226562 46.056875 7.67578125 46.34375 C5 47 5 47 0 47 C0 31.49 0 15.98 0 0 Z " fill="#77B258" transform="translate(171,201)"/>
<path d="M0 0 C2.75243305 1.25742731 4.17406479 2.18347369 6.3125 4.4375 C8.90134616 7.21456931 8.90134616 7.21456931 12.625 8.5 C16.51361455 10.22827313 16.91909482 11.47150861 19 15 C21.84979639 16.11680706 21.84979639 16.11680706 25 17 C30.36456569 19.96763208 34.39783231 24.076327 38 29 C38 29.66 38 30.32 38 31 C33.88494639 30.48828349 32.05781334 29.44886928 29.1875 26.5 C26.37721276 23.88590263 24.66961484 22.58177028 20.8125 22.3125 C16.37222595 21.94854311 15.30943783 20.80029355 12 18 C10.80375 17.690625 9.6075 17.38125 8.375 17.0625 C5 16 5 16 3.1875 14.0625 C1.42009774 9.50446258 0.71774416 4.82155192 0 0 Z " fill="#5B934C" transform="translate(425,299)"/>
<path d="M0 0 C4.072624 0.28272762 6.22441981 1.65836555 9.1875 4.375 C9.86167969 4.98085938 10.53585937 5.58671875 11.23046875 6.2109375 C13.81025365 8.81919684 15 10.26379211 15 14 C11.60311958 16.06239168 11.60311958 16.06239168 9.1875 15.8125 C6.2139327 14.70803215 4.18614905 12.95693934 1.75 10.9375 C0.85796875 10.20402344 -0.0340625 9.47054688 -0.953125 8.71484375 C-1.62859375 8.14894531 -2.3040625 7.58304687 -3 7 C-2.25 2.25 -2.25 2.25 0 0 Z " fill="#5B9247" transform="translate(406,287)"/>
<path d="M0 0 C1.9375 0.5 1.9375 0.5 4 2 C4.13141826 3.97127388 4.26251364 5.94257095 4.390625 7.9140625 C5.41378905 11.41643176 8.24718577 12.63567075 11.1875 14.546875 C13 16 13 16 14 19.375 C14 20.24125 14 21.1075 14 22 C9.94517435 22.31136532 8.00883158 21.74771365 4.8125 19.25 C4.13832031 18.73953125 3.46414063 18.2290625 2.76953125 17.703125 C0.12214833 15.15509199 -0.89352066 13.15863957 -1.23046875 9.4921875 C-1.20919922 8.19667969 -1.20919922 8.19667969 -1.1875 6.875 C-1.17783203 5.57175781 -1.17783203 5.57175781 -1.16796875 4.2421875 C-1 2 -1 2 0 0 Z " fill="#5B9348" transform="translate(389,281)"/>
<path d="M0 0 C3 1 3 1 4 3 C4.14665106 6.22632323 4.00816741 8.9628754 3.3125 12.125 C2.68373191 15.02586392 2.68373191 15.02586392 4.4375 17.125 C4.953125 17.74375 5.46875 18.3625 6 19 C6 20.32 6 21.64 6 23 C3.03 23 0.06 23 -3 23 C-2.34 21.68 -1.68 20.36 -1 19 C-0.88475208 16.27621374 -0.85681114 13.65402504 -0.9375 10.9375 C-1.1206177 3.36185309 -1.1206177 3.36185309 0 0 Z " fill="#5B934E" transform="translate(431,223)"/>
<path d="M0 0 C-1.58667578 3.90285767 -4.13350481 6.33520982 -7.125 9.25 C-8.03507812 10.14203125 -8.94515625 11.0340625 -9.8828125 11.953125 C-10.58148438 12.62859375 -11.28015625 13.3040625 -12 14 C-12.66 13.67 -13.32 13.34 -14 13 C-2.80645161 0 -2.80645161 0 0 0 Z " fill="#85C4DD" transform="translate(272,198)"/>
<path d="M0 0 C0.99 0 1.98 0 3 0 C3.66 3.63 4.32 7.26 5 11 C4.01 11.495 4.01 11.495 3 12 C0.58314288 7.77050005 -0.34833144 4.87664009 0 0 Z " fill="#85C6E4" transform="translate(302,226)"/>
<path d="M0 0 C0.33 0 0.66 0 1 0 C1.33 3.96 1.66 7.92 2 12 C0.68 11.67 -0.64 11.34 -2 11 C-1.34 7.37 -0.68 3.74 0 0 Z " fill="#599A7A" transform="translate(148,269)"/>
<path d="M0 0 C0.66 0.33 1.32 0.66 2 1 C2 1.99 2 2.98 2 4 C-1.63 4.33 -5.26 4.66 -9 5 C-6 2 -6 2 -2.8125 1.8125 C-1.4203125 1.9053125 -1.4203125 1.9053125 0 2 C0 1.34 0 0.68 0 0 Z " fill="#82C0BD" transform="translate(198,224)"/>
<path d="M0 0 C2.1875 1.3125 2.1875 1.3125 4 3 C4 3.66 4 4.32 4 5 C1.625 4.6875 1.625 4.6875 -1 4 C-1.66 3.01 -2.32 2.02 -3 1 C-2.01 0.67 -1.02 0.34 0 0 Z " fill="#59986C" transform="translate(459,325)"/>
<path d="M0 0 C1.1875 1.6875 1.1875 1.6875 2 4 C0.625 6.75 0.625 6.75 -1 9 C-1.66 8.67 -2.32 8.34 -3 8 C-2.01 5.36 -1.02 2.72 0 0 Z " fill="#5A9765" transform="translate(432,235)"/>
</svg>
